<svg height="512" viewBox="0 0 64 64" width="512" xmlns="http://www.w3.org/2000/svg"><g id="Compass-2" data-name="Compass"><path d="m34.12 29.88a2.994 2.994 0 1 1 -2.12-.88 2.993 2.993 0 0 1 2.12.88z" fill="#ffd422"/><g fill="#ff9811"><path d="m28.12 25.58-.68 1.86-1.86.68-2.6-5.14z"/><path d="m27.44 36.56.68 1.85-5.12 2.59 2.59-5.12z"/><path d="m36.56 36.56 1.85-.68 2.59 5.12-5.12-2.59z"/><path d="m41.02 22.98-2.6 5.14-1.86-.68-.68-1.86z"/></g><path d="m29.88 34.12-2.44 2.44-1.85-.68-10.59-3.88h14a2.993 2.993 0 0 0 .88 2.12z" fill="#00b39d"/><path d="m36.56 36.56-.68 1.85-3.88 10.59v-14a2.993 2.993 0 0 0 2.12-.88z" fill="#00b39d"/><path d="m38.42 28.12 10.58 3.88h-14a2.993 2.993 0 0 0 -.88-2.12l2.44-2.44z" fill="#00b39d"/><path d="m28.12 25.58 3.88-10.58v14a2.993 2.993 0 0 0 -2.12.88l-2.44-2.44z" fill="#00b39d"/><path d="m27.44 27.44 2.44 2.44a2.993 2.993 0 0 0 -.88 2.12h-14l10.58-3.88z" fill="#00ccb3"/><path d="m32 35v14l-3.88-10.59-.68-1.85 2.44-2.44a2.993 2.993 0 0 0 2.12.88z" fill="#00ccb3"/><path d="m49 32-10.59 3.88-1.85.68-2.44-2.44a2.993 2.993 0 0 0 .88-2.12z" fill="#00ccb3"/><path d="m36.56 27.44-2.44 2.44a2.993 2.993 0 0 0 -2.12-.88v-14l3.88 10.58z" fill="#00ccb3"/><path d="m35 12a1 1 0 0 1 -.8-.4l-4.2-5.6v6h-2v-9a1 1 0 0 1 1.8-.6l4.2 5.6v-6h2v9a1 1 0 0 1 -.684.949 1.019 1.019 0 0 1 -.316.051z" fill="#1e81ce"/><path d="m33 62h-2a3 3 0 0 1 -3-3h2a1 1 0 0 0 1 1h2a1 1 0 0 0 0-2h-2a3 3 0 0 1 0-6h2a3 3 0 0 1 3 3h-2a1 1 0 0 0 -1-1h-2a1 1 0 0 0 0 2h2a3 3 0 0 1 0 6z" fill="#1e81ce"/><path d="m62 29v-2h-6a1 1 0 0 0 -1 1v8a1 1 0 0 0 1 1h6v-2h-5v-2h3v-2h-3v-2z" fill="#1e81ce"/><path d="m9 37a1 1 0 0 1 -.961-.725l-1.039-3.635-1.039 3.635a1 1 0 0 1 -1.931-.032l-2-8 1.94-.486 1.094 4.378.975-3.41a1 1 0 0 1 1.922 0l.975 3.41 1.094-4.378 1.94.486-2 8a1 1 0 0 1 -.953.757z" fill="#1e81ce"/><path d="m25.77 58.277a26.977 26.977 0 0 1 -19.78-19.008l1.927-.538a24.977 24.977 0 0 0 18.313 17.6z" fill="#ff9811"/><path d="m38.23 58.277-.46-1.946a24.975 24.975 0 0 0 18.313-17.6l1.927.538a26.977 26.977 0 0 1 -19.78 19.008z" fill="#ff9811"/><path d="m56.083 25.269a24.977 24.977 0 0 0 -18.313-17.6l.46-1.946a26.977 26.977 0 0 1 19.78 19.008z" fill="#ff9811"/><path d="m7.669 26.23-1.946-.46a27.171 27.171 0 0 1 20.047-20.047l.46 1.946a25.159 25.159 0 0 0 -18.561 18.561z" fill="#ff9811"/></g></svg>